<svg width="120" height="35" viewBox="0 0 120 35" fill="none" xmlns="http://www.w3.org/2000/svg">
  <path d="M101.966 5.36508H97.2V31.6386H101.966V5.36508Z" fill="#FF7A59"/>
  <path d="M0 17.5714V31.646H4.75926V17.5714C4.75926 15.0476 6.80952 13 9.33333 13C11.8571 13 13.9074 15.0476 13.9074 17.5714V31.646H18.6667V17.5714C18.6667 12.373 14.5291 8 9.33333 8C4.13756 8 0 12.373 0 17.5714Z" fill="#33475B"/>
  <path d="M27.9085 8.03175H23.1492V31.6349H27.9085V8.03175Z" fill="#33475B"/>
  <path d="M25.5291 0C24.0741 0 22.9074 1.16667 22.9074 2.58466C22.9074 4.00265 24.0741 5.16932 25.5291 5.16932C26.9841 5.16932 28.1508 4.00265 28.1508 2.58466C28.1508 1.16667 26.9841 0 25.5291 0Z" fill="#33475B"/>
  <path d="M118.254 16.9577L114.683 16.3016C113.175 16.0423 112.095 15.4206 112.095 14.1799C112.095 12.9365 113.444 12.1799 115.169 12.1799C116.958 12.1799 118.228 12.8677 118.413 14.3148H119.868C119.627 12.0423 117.809 10.9101 115.249 10.9101C112.545 10.9101 110.678 12.3307 110.678 14.2328C110.678 16.2169 112.095 17.3016 114.258 17.6693L117.809 18.3281C119.302 18.6138 120.238 19.2884 120.238 20.6085C120.238 22.0291 118.598 22.9471 116.587 22.9471C114.55 22.9471 112.995 22.1376 112.836 20.4471H111.385C111.534 22.9471 113.45 24.2143 116.614 24.2143C119.523 24.2143 121.656 22.7138 121.656 20.5291C121.656 18.4896 120.122 17.3254 118.254 16.9577Z" fill="#33475B"/>
  <path d="M38.2619 13.7884H36.7328V10.0344H35.3016V13.7884H33.7725V15.095H35.3016V25.9768C35.3016 26.6138 35.7752 27.0873 36.3968 27.0873H38.2619V25.7831H36.7328V15.095H38.2619V13.7884Z" fill="#33475B"/>
  <path d="M45.7249 13.0979C42.7883 13.0979 40.4259 15.5714 40.4259 20.0979C40.4259 24.6244 42.7883 27.0979 45.7249 27.0979C48.6614 27.0979 51.0238 24.6244 51.0238 20.0979C51.0238 15.5714 48.6641 13.0979 45.7249 13.0979ZM45.7249 25.7937C43.4921 25.7937 41.8312 23.8968 41.8312 20.0979C41.8312 16.2989 43.4921 14.402 45.7249 14.402C47.9577 14.402 49.6185 16.2989 49.6185 20.0979C49.6185 23.8968 47.9577 25.7937 45.7249 25.7937Z" fill="#33475B"/>
  <path d="M59.2091 13.0979C56.6138 13.0979 54.9259 14.6429 54.2884 16.0979L54.2355 13.402H52.9841V31.6376H54.3894V24.7249C55.0503 26.1376 56.6614 27.0979 59.206 27.0979C62.1429 27.0979 64.5053 24.6244 64.5053 20.0979C64.5053 15.5714 62.1429 13.0979 59.2091 13.0979ZM59.0344 25.7937C56.8016 25.7937 54.9577 23.8968 54.9577 20.0979C54.9577 16.2989 56.8016 14.402 59.0344 14.402C61.2672 14.402 63.1005 16.2989 63.1005 20.0979C63.1005 23.8968 61.2672 25.7937 59.0344 25.7937Z" fill="#33475B"/>
  <path d="M66.6667 20.3968C66.6667 24.3175 68.8995 27.1005 72.0106 27.1005C74.0212 27.1005 75.6349 26.0608 76.4286 24.5582L76.4815 26.8016H77.7698V13.4603H76.3645V19.6376C76.3645 22.8677 74.8354 25.7964 72.0106 25.7964C69.5503 25.7964 68.0741 23.6376 68.0741 20.3968V13.4603H66.6667V20.3968Z" fill="#33475B"/>
  <path d="M83.2355 13.7884H81.7064V10.0344H80.2752V13.7884H78.7461V15.095H80.2752V25.9768C80.2752 26.6138 80.7487 27.0873 81.3704 27.0873H83.2355V25.7831H81.7064V15.095H83.2355V13.7884Z" fill="#33475B"/>
  <path d="M93.1587 19.095H87.1032V20.3693H91.7698C91.6111 23.2116 89.9206 25.7693 87.2328 25.7693C84.3228 25.7693 82.4047 23.2963 82.4047 20.0979C82.4047 16.8995 84.3228 14.4286 87.2328 14.4286C89.1323 14.4286 90.577 15.4312 91.3439 16.8995L92.5344 16.1931C91.4974 14.2989 89.6852 13.0979 87.2328 13.0979C83.5979 13.0979 81 16.0979 81 20.0979C81 24.0979 83.5979 27.0979 87.2328 27.0979C90.8677 27.0979 93.1587 24.0979 93.1587 20.3693V19.095Z" fill="#33475B"/>
</svg>
