<svg width="80" height="80" viewBox="0 0 80 80" fill="none" xmlns="http://www.w3.org/2000/svg">
  <rect width="80" height="80" rx="40" fill="#F0F4F8" />
  <path d="M53.3332 53.3333H26.6665C25.3748 53.3333 24.3332 52.2917 24.3332 51V33.3333C24.3332 32.0417 25.3748 31 26.6665 31H53.3332C54.6248 31 55.6665 32.0417 55.6665 33.3333V51C55.6665 52.2917 54.6248 53.3333 53.3332 53.3333Z" stroke="#FF7A59" stroke-width="2" stroke-linecap="round" stroke-linejoin="round"/>
  <path d="M24.3332 36.8333H55.6665" stroke="#FF7A59" stroke-width="2" stroke-linecap="round" stroke-linejoin="round"/>
  <path d="M30.1665 44.1667C31.8234 44.1667 33.1665 42.8236 33.1665 41.1667C33.1665 39.5098 31.8234 38.1667 30.1665 38.1667C28.5096 38.1667 27.1665 39.5098 27.1665 41.1667C27.1665 42.8236 28.5096 44.1667 30.1665 44.1667Z" stroke="#FF7A59" stroke-width="2" stroke-linecap="round" stroke-linejoin="round"/>
  <path d="M40 44.1667C41.6569 44.1667 43 42.8236 43 41.1667C43 39.5098 41.6569 38.1667 40 38.1667C38.3431 38.1667 37 39.5098 37 41.1667C37 42.8236 38.3431 44.1667 40 44.1667Z" stroke="#FF7A59" stroke-width="2" stroke-linecap="round" stroke-linejoin="round"/>
  <path d="M49.8332 44.1667C51.4901 44.1667 52.8332 42.8236 52.8332 41.1667C52.8332 39.5098 51.4901 38.1667 49.8332 38.1667C48.1763 38.1667 46.8332 39.5098 46.8332 41.1667C46.8332 42.8236 48.1763 44.1667 49.8332 44.1667Z" stroke="#FF7A59" stroke-width="2" stroke-linecap="round" stroke-linejoin="round"/>
  <path d="M30.1665 44.1667V49.1667" stroke="#FF7A59" stroke-width="2" stroke-linecap="round" stroke-linejoin="round"/>
  <path d="M40 44.1667V49.1667" stroke="#FF7A59" stroke-width="2" stroke-linecap="round" stroke-linejoin="round"/>
  <path d="M49.8335 44.1667V49.1667" stroke="#FF7A59" stroke-width="2" stroke-linecap="round" stroke-linejoin="round"/>
</svg>
